<svg xmlns="http://www.w3.org/2000/svg" version="1.1" xmlns:xlink="http://www.w3.org/1999/xlink" width="50" height="50" x="0" y="0" viewBox="0 0 512 512" xml:space="preserve" class=""><g><path d="M465.206 502H261.695c-16.771 0-30.366-13.595-30.366-30.366V353.443c0-16.771 13.595-30.366 30.366-30.366h203.512c16.771 0 30.366 13.595 30.366 30.366v118.191C495.572 488.405 481.977 502 465.206 502z" style="stroke-width:20;stroke-linecap:round;stroke-linejoin:round;stroke-miterlimit:10;" fill="none" stroke="#d2e00f" stroke-width="20" stroke-linecap="round" stroke-linejoin="round" stroke-miterlimit="10" data-original="#000000" opacity="1" class=""></path><path d="M256.566 323.522a77.325 77.325 0 0 1-5.677 1.537 29.177 29.177 0 0 1 5.677-1.537z" style="stroke-width:20;stroke-linecap:round;stroke-linejoin:round;stroke-miterlimit:10;" fill="none" stroke="#d2e00f" stroke-width="20" stroke-linecap="round" stroke-linejoin="round" stroke-miterlimit="10" data-original="#000000" opacity="1" class=""></path><path d="M271.634 147.202c31.097 15.699 52.428 47.937 52.428 85.152 0 42.962-28.433 79.282-67.497 91.168a29.877 29.877 0 0 1 5.134-.442h171.405l3.446-5.968c7.586-13.112 5.506-29.669-5.014-40.55l-20.014-20.637c-12.74-13.142-12.74-34.03 0-47.192l20.014-20.617c10.519-10.871 12.599-27.429 5.014-40.55l-30.473-52.808c-7.566-13.091-22.948-19.592-37.637-15.905l-27.871 7.003c-17.763 4.461-35.848-5.988-40.862-23.611l-7.857-27.62C287.682 20.057 274.379 10 259.248 10h-60.976c-15.131 0-28.454 10.057-32.603 24.626l-7.857 27.62c-5.014 17.623-23.098 28.072-40.862 23.611l-27.871-7.003c-14.689-3.687-30.071 2.813-37.637 15.905L20.97 147.566c-7.586 13.122-5.506 29.679 5.014 40.55l20.014 20.617c12.74 13.162 12.74 34.05 0 47.192l-20.014 20.637c-10.52 10.88-12.6 27.438-5.014 40.55l30.473 52.808c7.566 13.102 22.948 19.612 37.637 15.905l27.871-7.003c17.763-4.461 35.848 5.998 40.862 23.621l7.857 27.62c4.149 14.558 17.472 24.616 32.603 24.616h33.055V353.442c0-12.961 8.128-24.033 19.562-28.383a95.037 95.037 0 0 1-22.124 2.592c-52.637 0-95.307-42.66-95.307-95.297 0-37.201 21.315-69.429 52.397-85.134M283.056 368.35v88.376M344.213 368.35v88.376M283.056 411.023h61.157M388.369 371.053v84.28M447.291 413.845c0 23.63-13.115 42.329-33.923 42.692-6.926.121-24.826.189-24.826.189s-.112-31.064-.112-42.975c0-9.783-.062-42.787-.062-42.787h24.29c22.823 0 34.633 19.251 34.633 42.881zM228.765 137.026h0" style="stroke-width:20;stroke-linecap:round;stroke-linejoin:round;stroke-miterlimit:10;" fill="none" stroke="#d2e00f" stroke-width="20" stroke-linecap="round" stroke-linejoin="round" stroke-miterlimit="10" data-original="#000000" opacity="1" class=""></path></g></svg>