<svg xmlns="http://www.w3.org/2000/svg" version="1.1" xmlns:xlink="http://www.w3.org/1999/xlink" width="50" height="50" x="0" y="0" viewBox="0 0 64 64"  xml:space="preserve"><g><g fill="#000"><path d="M15 2a6 6 0 0 0-6 6v32a2 2 0 1 0 4 0V8a2 2 0 0 1 2-2h6a2 2 0 0 1 2 2v48a2 2 0 0 1-2 2h-6a2 2 0 0 1-2-2v-6a2 2 0 1 0-4 0v6a6 6 0 0 0 6 6h6a6 6 0 0 0 6-6V8a6 6 0 0 0-6-6zM43 2a6 6 0 0 0-6 6v48a6 6 0 0 0 6 6h6a6 6 0 0 0 6-6V26a2 2 0 1 0-4 0v30a2 2 0 0 1-2 2h-6a2 2 0 0 1-2-2V8a2 2 0 0 1 2-2h6a2 2 0 0 1 2 2v8a2 2 0 1 0 4 0V8a6 6 0 0 0-6-6z" fill="#d2e00f" opacity="1" data-original="#000000" ></path></g></g></svg>