<svg xmlns="http://www.w3.org/2000/svg" version="1.1" xmlns:xlink="http://www.w3.org/1999/xlink" width="38" height="38" x="0" y="0" viewBox="0 0 32 32" xml:space="preserve" fill-rule="evenodd"><g><path d="M13.23 27.678a1.001 1.001 0 0 1-.46 1.947C6.598 28.165 2 22.615 2 16 2 8.273 8.273 2 16 2s14 6.273 14 14c0 6.995-5.141 12.798-11.847 13.835a1 1 0 0 1-.306-1.976C23.595 26.97 28 21.995 28 16c0-6.623-5.377-12-12-12S4 9.377 4 16c0 5.67 3.941 10.427 9.23 11.678zM19.5 9.95a2.5 2.5 0 0 1 2.5 2.5v7.1a2.5 2.5 0 0 1-2.5 2.5h-7.1a2.5 2.5 0 0 1-2.5-2.5v-7.1a2.5 2.5 0 0 1 2.5-2.5zm0 2h-7.1a.5.5 0 0 0-.5.5v7.1a.5.5 0 0 0 .5.5h7.1a.5.5 0 0 0 .5-.5v-7.1a.5.5 0 0 0-.5-.5z" fill="#d2e00f" opacity="1" data-original="#000000"></path></g></svg>
