<svg xmlns="http://www.w3.org/2000/svg" version="1.1" xmlns:xlink="http://www.w3.org/1999/xlink" width="50" height="50" x="0" y="0" viewBox="0 0 24 24" xml:space="preserve"><g><path d="M17 20.75H7A3.383 3.383 0 0 1 3.25 17V7A3.383 3.383 0 0 1 7 3.25h10A3.383 3.383 0 0 1 20.75 7v10A3.383 3.383 0 0 1 17 20.75zm-10-16c-1.577 0-2.25.673-2.25 2.25v10c0 1.577.673 2.25 2.25 2.25h10c1.577 0 2.25-.673 2.25-2.25V7c0-1.577-.673-2.25-2.25-2.25z" fill="#d2e00f" opacity="1" data-original="#000000"></path></g></svg>